Coordinates
version=1
nRows=24
nColumns=38
inDegrees=no

Units are S.I. units (second, meters, Newtons, ...)
If the header above contains a line with 'inDegrees', this indicates whether rotational values are in degrees (yes) or radians (no).

endheader
time	pelvis_tilt	pelvis_list	pelvis_rotation	pelvis_tx	pelvis_ty	pelvis_tz	hip_flexion_r	hip_adduction_r	hip_rotation_r	knee_angle_r	ankle_angle_r	subtalar_angle_r	mtp_angle_r	hip_flexion_l	hip_adduction_l	hip_rotation_l	knee_angle_l	ankle_angle_l	subtalar_angle_l	mtp_angle_l	lumbar_extension	lumbar_bending	lumbar_rotation	arm_flex_r	arm_add_r	arm_rot_r	elbow_flex_r	pro_sup_r	wrist_flex_r	wrist_dev_r	arm_flex_l	arm_add_l	arm_rot_l	elbow_flex_l	pro_sup_l	wrist_flex_l	wrist_dev_l
0.68	-2.57788	1.29048	-1.87697	0.770564	0.0998463	0.924682	0.353999	-0.399223	-0.3411	1.00209	-0.180162	0	0	-0.308236	0.134395	-0.272279	0.40656	-0.124642	0	0	-0.20449	-0.0192656	0.121517	-0.343747	-0.849629	-0.238276	1.74208	0.407458	0	0	0.760103	-0.500138	1.0302	1.09883	0.487641	0	0
0.69	-2.562	1.29554	-1.8964	0.77022	0.108783	0.923156	0.365074	-0.397271	-0.346859	0.953072	-0.16171	0	0	-0.314057	0.138128	-0.267065	0.402587	-0.118502	0	0	-0.199971	-0.0227539	0.124087	-0.341751	-0.849539	-0.237824	1.74247	0.407635	0	0	0.760975	-0.502595	1.02985	1.10143	0.491591	0	0
0.7	-2.54532	1.30121	-1.91664	0.769911	0.117855	0.921512	0.374013	-0.394422	-0.352694	0.901198	-0.133648	0	0	-0.319122	0.141819	-0.261095	0.399267	-0.109621	0	0	-0.194136	-0.0257392	0.127562	-0.341186	-0.847799	-0.239269	1.74317	0.413522	0	0	0.76081	-0.502855	1.02797	1.1019	0.495712	0	0
0.71	-2.52926	1.30653	-1.93662	0.769671	0.127076	0.919843	0.3794	-0.390712	-0.358507	0.845629	-0.10853	0	0	-0.324633	0.14508	-0.256581	0.396142	-0.101889	0	0	-0.188227	-0.0283065	0.131774	-0.341388	-0.849113	-0.23904	1.74408	0.409805	0	0	0.760734	-0.502362	1.02693	1.10151	0.496787	0	0
0.72	-2.51165	1.312	-1.95829	0.769491	0.136451	0.91811	0.382471	-0.386308	-0.364377	0.787864	-0.0970695	0	0	-0.329893	0.148529	-0.252594	0.392952	-0.0980135	0	0	-0.181658	-0.0311303	0.136174	-0.341351	-0.848697	-0.239366	1.74457	0.409048	0	0	0.760918	-0.502421	1.02714	1.1015	0.496764	0	0
0.73	-2.49923	1.31635	-1.97469	0.769367	0.145891	0.91648	0.379839	-0.378617	-0.367984	0.725576	-0.0717967	0	0	-0.336346	0.150392	-0.249966	0.390289	-0.0910962	0	0	-0.176793	-0.0328545	0.140397	-0.340661	-0.848711	-0.239451	1.74443	0.410998	0	0	0.760631	-0.502587	1.02596	1.10175	0.498656	0	0
0.74	-2.48509	1.32036	-1.99239	0.769272	0.155502	0.914824	0.375805	-0.371025	-0.370024	0.665381	-0.0574861	0	0	-0.343035	0.15232	-0.245852	0.388311	-0.0870953	0	0	-0.171565	-0.0351684	0.144154	-0.339431	-0.848641	-0.238517	1.74357	0.411637	0	0	0.760651	-0.503153	1.02607	1.10199	0.498493	0	0
0.75	-2.47642	1.3228	-2.00419	0.769291	0.16522	0.913304	0.36697	-0.361406	-0.368993	0.605092	-0.0409923	0	0	-0.351508	0.152914	-0.241395	0.387146	-0.0826542	0	0	-0.168423	-0.0368712	0.147347	-0.337562	-0.84772	-0.23758	1.7428	0.413035	0	0	0.760856	-0.50398	1.02584	1.10251	0.499354	0	0
0.76	-2.47136	1.32432	-2.0115	0.769359	0.175122	0.91183	0.355429	-0.351531	-0.365647	0.549015	-0.0292262	0	0	-0.360771	0.152381	-0.235764	0.386928	-0.0782844	0	0	-0.166297	-0.0382171	0.149672	-0.335595	-0.846524	-0.236491	1.74214	0.413597	0	0	0.761589	-0.505509	1.02655	1.10366	0.499226	0	0
0.77	-2.46875	1.32487	-2.01512	0.769384	0.185174	0.910369	0.343106	-0.343084	-0.361475	0.503042	-0.0221689	0	0	-0.37054	0.151263	-0.227978	0.388296	-0.0737315	0	0	-0.16528	-0.0393912	0.150876	-0.334103	-0.845446	-0.235888	1.74189	0.414116	0	0	0.762995	-0.507566	1.02832	1.10561	0.497359	0	0
0.78	-2.46471	1.32481	-2.0188	0.769256	0.195403	0.908849	0.334747	-0.338879	-0.361204	0.479237	-0.0195179	0	0	-0.380001	0.15042	-0.217905	0.391425	-0.0702878	0	0	-0.164279	-0.0408764	0.151271	-0.334051	-0.84449	-0.236341	1.7423	0.414572	0	0	0.764909	-0.509041	1.03081	1.10693	0.496198	0	0
0.79	-2.46261	1.32382	-2.01968	0.768991	0.205733	0.907377	0.329212	-0.337265	-0.362271	0.475213	-0.0205821	0	0	-0.389772	0.149293	-0.206762	0.396313	-0.0679755	0	0	-0.164342	-0.0419084	0.151194	-0.335165	-0.843642	-0.238006	1.74367	0.414137	0	0	0.76701	-0.509917	1.0332	1.10783	0.496001	0	0
0.8	-2.46438	1.32071	-2.01456	0.768519	0.216065	0.906097	0.325201	-0.339356	-0.369115	0.492761	-0.0264805	0	0	-0.401479	0.148332	-0.188305	0.403009	-0.0620682	0	0	-0.16732	-0.0425404	0.149332	-0.337183	-0.841655	-0.242192	1.74609	0.412962	0	0	0.770833	-0.510751	1.03756	1.10877	0.494378	0	0
0.81	-2.46808	1.31758	-2.00734	0.768001	0.226636	0.904887	0.323136	-0.342023	-0.376034	0.523974	-0.0314179	0	0	-0.412775	0.146594	-0.171646	0.410903	-0.0597938	0	0	-0.170084	-0.0423604	0.146787	-0.338854	-0.842846	-0.24373	1.74833	0.408137	0	0	0.773287	-0.511813	1.04024	1.10966	0.491907	0	0
0.82	-2.4684	1.31415	-2.00161	0.767391	0.237455	0.903723	0.322994	-0.348174	-0.387753	0.567509	-0.0357943	0	0	-0.42386	0.145547	-0.150046	0.420275	-0.0552279	0	0	-0.172367	-0.0432194	0.141543	-0.339383	-0.844477	-0.24206	1.75084	0.402615	0	0	0.775832	-0.514907	1.0443	1.11204	0.486279	0	0
0.83	-2.48169	1.31034	-1.98341	0.766982	0.248348	0.903028	0.313352	-0.345675	-0.391455	0.589304	-0.0403885	0	0	-0.435789	0.141012	-0.130818	0.430711	-0.0554943	0	0	-0.176803	-0.0409585	0.136132	-0.337998	-0.844648	-0.240257	1.7523	0.403878	0	0	0.776545	-0.517592	1.04495	1.11387	0.48657	0	0
0.84	-2.49558	1.30724	-1.96379	0.766554	0.259335	0.902522	0.304199	-0.343673	-0.398396	0.606529	-0.0493134	0	0	-0.445605	0.136305	-0.107594	0.443855	-0.0554233	0	0	-0.180398	-0.0379121	0.129497	-0.335426	-0.84534	-0.236769	1.75251	0.405419	0	0	0.776603	-0.520437	1.04527	1.11534	0.486117	0	0
0.85	-2.51177	1.30478	-1.94209	0.766179	0.27041	0.902246	0.29573	-0.341583	-0.408073	0.62046	-0.0676278	0	0	-0.453328	0.130842	-0.0814537	0.460677	-0.0562257	0	0	-0.18335	-0.0337531	0.123428	-0.333279	-0.844754	-0.233967	1.75246	0.406943	0	0	0.775981	-0.522161	1.04496	1.11528	0.486008	0	0
0.86	-2.5265	1.30277	-1.92209	0.765912	0.281697	0.902143	0.287511	-0.340116	-0.420854	0.634677	-0.0928749	0	0	-0.458585	0.126188	-0.0520275	0.481345	-0.058062	0	0	-0.185208	-0.0300119	0.118194	-0.332282	-0.842409	-0.232006	1.75238	0.40686	0	0	0.775506	-0.523346	1.04563	1.11431	0.48656	0	0
0.87	-2.53912	1.30118	-1.90448	0.76585	0.293253	0.902178	0.278049	-0.338431	-0.435601	0.647881	-0.120797	0	0	-0.461484	0.12247	-0.0174807	0.506264	-0.0610592	0	0	-0.185868	-0.0271711	0.113805	-0.33214	-0.838677	-0.230135	1.75196	0.405878	0	0	0.775645	-0.524688	1.04816	1.11332	0.486798	0	0
0.88	-2.55102	1.29979	-1.8882	0.766005	0.305	0.90235	0.26774	-0.336201	-0.450344	0.660563	-0.147668	0	0	-0.462076	0.119611	0.0225134	0.536296	-0.0658062	0	0	-0.185632	-0.0249338	0.110457	-0.332062	-0.835168	-0.227562	1.75012	0.40874	0	0	0.776604	-0.525866	1.05253	1.11163	0.485814	0	0
0.89	-2.55775	1.30023	-1.87783	0.766232	0.316843	0.902479	0.262114	-0.335764	-0.462471	0.67885	-0.176113	0	0	-0.457118	0.119765	0.0694035	0.575278	-0.06908	0	0	-0.182499	-0.0238358	0.107899	-0.331483	-0.827222	-0.22685	1.74672	0.425693	0	0	0.776708	-0.526991	1.0566	1.10963	0.484371	0	0
0.9	-2.5634	1.30182	-1.87023	0.766487	0.328662	0.902555	0.260603	-0.335533	-0.468591	0.702291	-0.189453	0	0	-0.44703	0.122105	0.115908	0.622644	-0.0745977	0	0	-0.17771	-0.0226403	0.105997	-0.329588	-0.826208	-0.219502	1.74338	0.418285	0	0	0.775354	-0.528853	1.05933	1.10832	0.482273	0	0
0.91	-2.57406	1.30291	-1.85898	0.766815	0.340355	0.902796	0.258177	-0.333246	-0.471096	0.725281	-0.19299	0	0	-0.433751	0.124235	0.157881	0.676145	-0.0863182	0	0	-0.174403	-0.0202074	0.10448	-0.325995	-0.824082	-0.21261	1.73985	0.417166	0	0	0.772859	-0.531576	1.05926	1.10866	0.482786	0	0
